{
  "asset": {
    "generator": "glTF-Transform v4.4.2",
    "version": "2.0"
  },
  "accessors": [
    {
      "type": "SCALAR",
      "componentType": 5123,
      "count": 2601,
      "bufferView": 0,
      "byteOffset": 0
    },
    {
      "type": "SCALAR",
      "componentType": 5123,
      "count": 7356,
      "bufferView": 0,
      "byteOffset": 5204
    },
    {
      "type": "SCALAR",
      "componentType": 5123,
      "count": 870,
      "bufferView": 0,
      "byteOffset": 19916
    },
    {
      "type": "SCALAR",
      "componentType": 5123,
      "count": 2862,
      "bufferView": 0,
      "byteOffset": 21656
    },
    {
      "type": "SCALAR",
      "componentType": 5123,
      "count": 19356,
      "bufferView": 0,
      "byteOffset": 27380
    },
    {
      "type": "SCALAR",
      "componentType": 5123,
      "count": 831,
      "bufferView": 0,
      "byteOffset": 66092
    },
    {
      "type": "SCALAR",
      "componentType": 5123,
      "count": 9036,
      "bufferView": 0,
      "byteOffset": 67756
    },
    {
      "type": "SCALAR",
      "componentType": 5123,
      "count": 2853,
      "bufferView": 0,
      "byteOffset": 85828
    },
    {
      "type": "SCALAR",
      "componentType": 5123,
      "count": 22446,
      "bufferView": 0,
      "byteOffset": 91536
    },
    {
      "type": "SCALAR",
      "componentType": 5123,
      "count": 10719,
      "bufferView": 0,
      "byteOffset": 136428
    },
    {
      "type": "SCALAR",
      "componentType": 5123,
      "count": 3666,
      "bufferView": 0,
      "byteOffset": 157868
    },
    {
      "type": "SCALAR",
      "componentType": 5123,
      "count": 876,
      "bufferView": 0,
      "byteOffset": 165200
    },
    {
      "type": "SCALAR",
      "componentType": 5123,
      "count": 2265,
      "bufferView": 0,
      "byteOffset": 166952
    },
    {
      "type": "SCALAR",
      "componentType": 5123,
      "count": 1152,
      "bufferView": 0,
      "byteOffset": 171484
    },
    {
      "type": "SCALAR",
      "componentType": 5123,
      "count": 24,
      "bufferView": 0,
      "byteOffset": 173788
    },
    {
      "type": "SCALAR",
      "componentType": 5123,
      "count": 306,
      "bufferView": 0,
      "byteOffset": 173836
    },
    {
      "type": "SCALAR",
      "componentType": 5123,
      "count": 36,
      "bufferView": 0,
      "byteOffset": 174448
    },
    {
      "type": "SCALAR",
      "componentType": 5123,
      "count": 2004,
      "bufferView": 0,
      "byteOffset": 174520
    },
    {
      "type": "SCALAR",
      "componentType": 5123,
      "count": 372,
      "bufferView": 0,
      "byteOffset": 178528
    },
    {
      "type": "SCALAR",
      "componentType": 5123,
      "count": 432,
      "bufferView": 0,
      "byteOffset": 179272
    },
    {
      "type": "SCALAR",
      "componentType": 5123,
      "count": 25341,
      "bufferView": 0,
      "byteOffset": 180136
    },
    {
      "type": "SCALAR",
      "componentType": 5125,
      "count": 801402,
      "bufferView": 0,
      "byteOffset": 230820
    },
    {
      "type": "SCALAR",
      "componentType": 5123,
      "count": 1440,
      "bufferView": 0,
      "byteOffset": 3436428
    },
    {
      "type": "SCALAR",
      "componentType": 5123,
      "count": 19092,
      "bufferView": 0,
      "byteOffset": 3439308
    },
    {
      "type": "VEC2",
      "componentType": 5126,
      "count": 1023,
      "bufferView": 1,
      "byteOffset": 0
    },
    {
      "type": "VEC4",
      "componentType": 5121,
      "count": 1023,
      "normalized": true,
      "bufferView": 1,
      "byteOffset": 8
    },
    {
      "type": "VEC3",
      "componentType": 5122,
      "count": 1023,
      "max": [
        12509,
        32767,
        4304
      ],
      "min": [
        -12509,
        -32767,
        -4304
      ],
      "normalized": true,
      "bufferView": 1,
      "byteOffset": 12
    },
    {
      "type": "VEC3",
      "componentType": 5122,
      "count": 1023,
      "normalized": true,
      "bufferView": 1,
      "byteOffset": 20
    },
    {
      "type": "VEC2",
      "componentType": 5126,
      "count": 1231,
      "bufferView": 2,
      "byteOffset": 0
    },
    {
      "type": "VEC4",
      "componentType": 5121,
      "count": 1231,
      "normalized": true,
      "bufferView": 2,
      "byteOffset": 8
    },
    {
      "type": "VEC3",
      "componentType": 5122,
      "count": 1231,
      "max": [
        17182,
        32767,
        3392
      ],
      "min": [
        -17182,
        -32767,
        -3392
      ],
      "normalized": true,
      "bufferView": 2,
      "byteOffset": 12
    },
    {
      "type": "VEC3",
      "componentType": 5122,
      "count": 1231,
      "normalized": true,
      "bufferView": 2,
      "byteOffset": 20
    },
    {
      "type": "VEC2",
      "componentType": 5126,
      "count": 334,
      "bufferView": 3,
      "byteOffset": 0
    },
    {
      "type": "VEC4",
      "componentType": 5121,
      "count": 334,
      "normalized": true,
      "bufferView": 3,
      "byteOffset": 8
    },
    {
      "type": "VEC3",
      "componentType": 5122,
      "count": 334,
      "max": [
        13181,
        32767,
        4848
      ],
      "min": [
        -13181,
        -32767,
        -4848
      ],
      "normalized": true,
      "bufferView": 3,
      "byteOffset": 12
    },
    {
      "type": "VEC3",
      "componentType": 5122,
      "count": 334,
      "normalized": true,
      "bufferView": 3,
      "byteOffset": 20
    },
    {
      "type": "VEC4",
      "componentType": 5121,
      "count": 164,
      "normalized": true,
      "bufferView": 4,
      "byteOffset": 0
    },
    {
      "type": "VEC3",
      "componentType": 5122,
      "count": 164,
      "max": [
        32767,
        13273,
        25423
      ],
      "min": [
        -32767,
        -13273,
        -25423
      ],
      "normalized": true,
      "bufferView": 4,
      "byteOffset": 4
    },
    {
      "type": "VEC3",
      "componentType": 5122,
      "count": 164,
      "normalized": true,
      "bufferView": 4,
      "byteOffset": 12
    },
    {
      "type": "VEC2",
      "componentType": 5123,
      "count": 164,
      "normalized": true,
      "bufferView": 4,
      "byteOffset": 20
    },
    {
      "type": "VEC4",
      "componentType": 5121,
      "count": 1767,
      "normalized": true,
      "bufferView": 5,
      "byteOffset": 0
    },
    {
      "type": "VEC3",
      "componentType": 5122,
      "count": 1767,
      "max": [
        27727,
        32767,
        13169
      ],
      "min": [
        -27727,
        -32767,
        -13169
      ],
      "normalized": true,
      "bufferView": 5,
      "byteOffset": 4
    },
    {
      "type": "VEC3",
      "componentType": 5122,
      "count": 1767,
      "normalized": true,
      "bufferView": 5,
      "byteOffset": 12
    },
    {
      "type": "VEC2",
      "componentType": 5123,
      "count": 1767,
      "normalized": true,
      "bufferView": 5,
      "byteOffset": 20
    },
    {
      "type": "VEC2",
      "componentType": 5126,
      "count": 496,
      "bufferView": 6,
      "byteOffset": 0
    },
    {
      "type": "VEC4",
      "componentType": 5121,
      "count": 496,
      "normalized": true,
      "bufferView": 6,
      "byteOffset": 8
    },
    {
      "type": "VEC3",
      "componentType": 5122,
      "count": 496,
      "max": [
        32767,
        15329,
        29571
      ],
      "min": [
        -32767,
        -15329,
        -29571
      ],
      "normalized": true,
      "bufferView": 6,
      "byteOffset": 12
    },
    {
      "type": "VEC3",
      "componentType": 5122,
      "count": 496,
      "normalized": true,
      "bufferView": 6,
      "byteOffset": 20
    },
    {
      "type": "VEC2",
      "componentType": 5126,
      "count": 4235,
      "bufferView": 7,
      "byteOffset": 0
    },
    {
      "type": "VEC4",
      "componentType": 5121,
      "count": 4235,
      "normalized": true,
      "bufferView": 7,
      "byteOffset": 8
    },
    {
      "type": "VEC3",
      "componentType": 5122,
      "count": 4235,
      "max": [
        17266,
        32767,
        15713
      ],
      "min": [
        -17266,
        -32767,
        -15713
      ],
      "normalized": true,
      "bufferView": 7,
      "byteOffset": 12
    },
    {
      "type": "VEC3",
      "componentType": 5122,
      "count": 4235,
      "normalized": true,
      "bufferView": 7,
      "byteOffset": 20
    },
    {
      "type": "VEC2",
      "componentType": 5126,
      "count": 2661,
      "bufferView": 8,
      "byteOffset": 0
    },
    {
      "type": "VEC4",
      "componentType": 5121,
      "count": 2661,
      "normalized": true,
      "bufferView": 8,
      "byteOffset": 8
    },
    {
      "type": "VEC3",
      "componentType": 5122,
      "count": 2661,
      "max": [
        17098,
        32767,
        9097
      ],
      "min": [
        -17098,
        -32767,
        -9097
      ],
      "normalized": true,
      "bufferView": 8,
      "byteOffset": 12
    },
    {
      "type": "VEC3",
      "componentType": 5122,
      "count": 2661,
      "normalized": true,
      "bufferView": 8,
      "byteOffset": 20
    },
    {
      "type": "VEC2",
      "componentType": 5126,
      "count": 632,
      "bufferView": 9,
      "byteOffset": 0
    },
    {
      "type": "VEC4",
      "componentType": 5121,
      "count": 632,
      "normalized": true,
      "bufferView": 9,
      "byteOffset": 8
    },
    {
      "type": "VEC3",
      "componentType": 5122,
      "count": 632,
      "max": [
        32767,
        31079,
        27139
      ],
      "min": [
        -32767,
        -31079,
        -27139
      ],
      "normalized": true,
      "bufferView": 9,
      "byteOffset": 12
    },
    {
      "type": "VEC3",
      "componentType": 5122,
      "count": 632,
      "normalized": true,
      "bufferView": 9,
      "byteOffset": 20
    },
    {
      "type": "VEC2",
      "componentType": 5126,
      "count": 267,
      "bufferView": 10,
      "byteOffset": 0
    },
    {
      "type": "VEC4",
      "componentType": 5121,
      "count": 267,
      "normalized": true,
      "bufferView": 10,
      "byteOffset": 8
    },
    {
      "type": "VEC3",
      "componentType": 5122,
      "count": 267,
      "max": [
        16574,
        32767,
        4816
      ],
      "min": [
        -16574,
        -32767,
        -4816
      ],
      "normalized": true,
      "bufferView": 10,
      "byteOffset": 12
    },
    {
      "type": "VEC3",
      "componentType": 5122,
      "count": 267,
      "normalized": true,
      "bufferView": 10,
      "byteOffset": 20
    },
    {
      "type": "VEC2",
      "componentType": 5126,
      "count": 487,
      "bufferView": 11,
      "byteOffset": 0
    },
    {
      "type": "VEC4",
      "componentType": 5121,
      "count": 487,
      "normalized": true,
      "bufferView": 11,
      "byteOffset": 8
    },
    {
      "type": "VEC3",
      "componentType": 5122,
      "count": 487,
      "max": [
        32767,
        15633,
        30299
      ],
      "min": [
        -32767,
        -15633,
        -30299
      ],
      "normalized": true,
      "bufferView": 11,
      "byteOffset": 12
    },
    {
      "type": "VEC3",
      "componentType": 5122,
      "count": 487,
      "normalized": true,
      "bufferView": 11,
      "byteOffset": 20
    },
    {
      "type": "VEC2",
      "componentType": 5126,
      "count": 499,
      "bufferView": 12,
      "byteOffset": 0
    },
    {
      "type": "VEC4",
      "componentType": 5121,
      "count": 499,
      "normalized": true,
      "bufferView": 12,
      "byteOffset": 8
    },
    {
      "type": "VEC3",
      "componentType": 5122,
      "count": 499,
      "max": [
        17426,
        32767,
        9065
      ],
      "min": [
        -17426,
        -32767,
        -9065
      ],
      "normalized": true,
      "bufferView": 12,
      "byteOffset": 12
    },
    {
      "type": "VEC3",
      "componentType": 5122,
      "count": 499,
      "normalized": true,
      "bufferView": 12,
      "byteOffset": 20
    },
    {
      "type": "VEC2",
      "componentType": 5126,
      "count": 12,
      "bufferView": 13,
      "byteOffset": 0
    },
    {
      "type": "VEC4",
      "componentType": 5121,
      "count": 12,
      "normalized": true,
      "bufferView": 13,
      "byteOffset": 8
    },
    {
      "type": "VEC3",
      "componentType": 5122,
      "count": 12,
      "max": [
        32767,
        308,
        972
      ],
      "min": [
        -32767,
        -308,
        -972
      ],
      "normalized": true,
      "bufferView": 13,
      "byteOffset": 12
    },
    {
      "type": "VEC3",
      "componentType": 5122,
      "count": 12,
      "normalized": true,
      "bufferView": 13,
      "byteOffset": 20
    },
    {
      "type": "VEC2",
      "componentType": 5126,
      "count": 99,
      "bufferView": 14,
      "byteOffset": 0
    },
    {
      "type": "VEC4",
      "componentType": 5121,
      "count": 99,
      "normalized": true,
      "bufferView": 14,
      "byteOffset": 8
    },
    {
      "type": "VEC3",
      "componentType": 5122,
      "count": 99,
      "max": [
        32767,
        3824,
        6036
      ],
      "min": [
        -32767,
        -3824,
        -6036
      ],
      "normalized": true,
      "bufferView": 14,
      "byteOffset": 12
    },
    {
      "type": "VEC3",
      "componentType": 5122,
      "count": 99,
      "normalized": true,
      "bufferView": 14,
      "byteOffset": 20
    },
    {
      "type": "VEC4",
      "componentType": 5121,
      "count": 16,
      "normalized": true,
      "bufferView": 15,
      "byteOffset": 0
    },
    {
      "type": "VEC3",
      "componentType": 5122,
      "count": 16,
      "max": [
        32767,
        732,
        1112
      ],
      "min": [
        -32767,
        -732,
        -1112
      ],
      "normalized": true,
      "bufferView": 15,
      "byteOffset": 4
    },
    {
      "type": "VEC3",
      "componentType": 5122,
      "count": 16,
      "normalized": true,
      "bufferView": 15,
      "byteOffset": 12
    },
    {
      "type": "VEC2",
      "componentType": 5123,
      "count": 16,
      "normalized": true,
      "bufferView": 15,
      "byteOffset": 20
    },
    {
      "type": "VEC2",
      "componentType": 5126,
      "count": 586,
      "bufferView": 16,
      "byteOffset": 0
    },
    {
      "type": "VEC4",
      "componentType": 5121,
      "count": 586,
      "normalized": true,
      "bufferView": 16,
      "byteOffset": 8
    },
    {
      "type": "VEC3",
      "componentType": 5122,
      "count": 586,
      "max": [
        29935,
        32767,
        13729
      ],
      "min": [
        -29935,
        -32767,
        -13729
      ],
      "normalized": true,
      "bufferView": 16,
      "byteOffset": 12
    },
    {
      "type": "VEC3",
      "componentType": 5122,
      "count": 586,
      "normalized": true,
      "bufferView": 16,
      "byteOffset": 20
    },
    {
      "type": "VEC4",
      "componentType": 5121,
      "count": 115,
      "normalized": true,
      "bufferView": 17,
      "byteOffset": 0
    },
    {
      "type": "VEC3",
      "componentType": 5122,
      "count": 115,
      "max": [
        15165,
        8545,
        32767
      ],
      "min": [
        -15165,
        -8545,
        -32767
      ],
      "normalized": true,
      "bufferView": 17,
      "byteOffset": 4
    },
    {
      "type": "VEC3",
      "componentType": 5122,
      "count": 115,
      "normalized": true,
      "bufferView": 17,
      "byteOffset": 12
    },
    {
      "type": "VEC2",
      "componentType": 5123,
      "count": 115,
      "normalized": true,
      "bufferView": 17,
      "byteOffset": 20
    },
    {
      "type": "VEC2",
      "componentType": 5126,
      "count": 98,
      "bufferView": 18,
      "byteOffset": 0
    },
    {
      "type": "VEC4",
      "componentType": 5121,
      "count": 98,
      "normalized": true,
      "bufferView": 18,
      "byteOffset": 8
    },
    {
      "type": "VEC3",
      "componentType": 5122,
      "count": 98,
      "max": [
        32767,
        6832,
        4748
      ],
      "min": [
        -32767,
        -6832,
        -4748
      ],
      "normalized": true,
      "bufferView": 18,
      "byteOffset": 12
    },
    {
      "type": "VEC3",
      "componentType": 5122,
      "count": 98,
      "normalized": true,
      "bufferView": 18,
      "byteOffset": 20
    },
    {
      "type": "VEC2",
      "componentType": 5126,
      "count": 3984,
      "bufferView": 19,
      "byteOffset": 0
    },
    {
      "type": "VEC4",
      "componentType": 5121,
      "count": 3984,
      "normalized": true,
      "bufferView": 19,
      "byteOffset": 8
    },
    {
      "type": "VEC3",
      "componentType": 5122,
      "count": 3984,
      "max": [
        20742,
        32767,
        14645
      ],
      "min": [
        -20742,
        -32767,
        -14645
      ],
      "normalized": true,
      "bufferView": 19,
      "byteOffset": 12
    },
    {
      "type": "VEC3",
      "componentType": 5122,
      "count": 3984,
      "normalized": true,
      "bufferView": 19,
      "byteOffset": 20
    },
    {
      "type": "VEC4",
      "componentType": 5121,
      "count": 163437,
      "normalized": true,
      "bufferView": 20,
      "byteOffset": 0
    },
    {
      "type": "VEC3",
      "componentType": 5122,
      "count": 163437,
      "max": [
        15297,
        11385,
        32767
      ],
      "min": [
        -15297,
        -11385,
        -32767
      ],
      "normalized": true,
      "bufferView": 20,
      "byteOffset": 4
    },
    {
      "type": "VEC3",
      "componentType": 5122,
      "count": 163437,
      "normalized": true,
      "bufferView": 20,
      "byteOffset": 12
    },
    {
      "type": "VEC2",
      "componentType": 5123,
      "count": 163437,
      "normalized": true,
      "bufferView": 20,
      "byteOffset": 20
    },
    {
      "type": "VEC4",
      "componentType": 5121,
      "count": 292,
      "normalized": true,
      "bufferView": 21,
      "byteOffset": 0
    },
    {
      "type": "VEC3",
      "componentType": 5122,
      "count": 292,
      "max": [
        21866,
        792,
        32767
      ],
      "min": [
        -21866,
        -792,
        -32767
      ],
      "normalized": true,
      "bufferView": 21,
      "byteOffset": 4
    },
    {
      "type": "VEC3",
      "componentType": 5122,
      "count": 292,
      "normalized": true,
      "bufferView": 21,
      "byteOffset": 12
    },
    {
      "type": "VEC2",
      "componentType": 5123,
      "count": 292,
      "normalized": true,
      "bufferView": 21,
      "byteOffset": 20
    },
    {
      "type": "VEC4",
      "componentType": 5121,
      "count": 4041,
      "normalized": true,
      "bufferView": 22,
      "byteOffset": 0
    },
    {
      "type": "VEC3",
      "componentType": 5122,
      "count": 4041,
      "max": [
        17806,
        6784,
        32767
      ],
      "min": [
        -17806,
        -6784,
        -32767
      ],
      "normalized": true,
      "bufferView": 22,
      "byteOffset": 4
    },
    {
      "type": "VEC3",
      "componentType": 5122,
      "count": 4041,
      "normalized": true,
      "bufferView": 22,
      "byteOffset": 12
    },
    {
      "type": "VEC2",
      "componentType": 5123,
      "count": 4041,
      "normalized": true,
      "bufferView": 22,
      "byteOffset": 20
    },
    {
      "type": "VEC3",
      "componentType": 5122,
      "count": 585,
      "max": [
        18902,
        32767,
        15373
      ],
      "min": [
        -18902,
        -32767,
        -15373
      ],
      "normalized": true,
      "bufferView": 23,
      "byteOffset": 0
    },
    {
      "type": "VEC3",
      "componentType": 5122,
      "count": 585,
      "normalized": true,
      "bufferView": 23,
      "byteOffset": 8
    },
    {
      "type": "VEC2",
      "componentType": 5123,
      "count": 585,
      "normalized": true,
      "bufferView": 23,
      "byteOffset": 16
    },
    {
      "type": "VEC3",
      "componentType": 5122,
      "count": 4173,
      "max": [
        15993,
        32767,
        9565
      ],
      "min": [
        -15993,
        -32767,
        -9565
      ],
      "normalized": true,
      "bufferView": 24,
      "byteOffset": 0
    },
    {
      "type": "VEC3",
      "componentType": 5122,
      "count": 4173,
      "normalized": true,
      "bufferView": 24,
      "byteOffset": 8
    },
    {
      "type": "VEC2",
      "componentType": 5123,
      "count": 4173,
      "normalized": true,
      "bufferView": 24,
      "byteOffset": 16
    }
  ],
  "bufferViews": [
    {
      "buffer": 0,
      "byteOffset": 0,
      "byteLength": 3477492,
      "target": 34963
    },
    {
      "buffer": 0,
      "byteOffset": 3477492,
      "byteLength": 28644,
      "byteStride": 28,
      "target": 34962
    },
    {
      "buffer": 0,
      "byteOffset": 3506136,
      "byteLength": 34468,
      "byteStride": 28,
      "target": 34962
    },
    {
      "buffer": 0,
      "byteOffset": 3540604,
      "byteLength": 9352,
      "byteStride": 28,
      "target": 34962
    },
    {
      "buffer": 0,
      "byteOffset": 3549956,
      "byteLength": 3936,
      "byteStride": 24,
      "target": 34962
    },
    {
      "buffer": 0,
      "byteOffset": 3553892,
      "byteLength": 42408,
      "byteStride": 24,
      "target": 34962
    },
    {
      "buffer": 0,
      "byteOffset": 3596300,
      "byteLength": 13888,
      "byteStride": 28,
      "target": 34962
    },
    {
      "buffer": 0,
      "byteOffset": 3610188,
      "byteLength": 118580,
      "byteStride": 28,
      "target": 34962
    },
    {
      "buffer": 0,
      "byteOffset": 3728768,
      "byteLength": 74508,
      "byteStride": 28,
      "target": 34962
    },
    {
      "buffer": 0,
      "byteOffset": 3803276,
      "byteLength": 17696,
      "byteStride": 28,
      "target": 34962
    },
    {
      "buffer": 0,
      "byteOffset": 3820972,
      "byteLength": 7476,
      "byteStride": 28,
      "target": 34962
    },
    {
      "buffer": 0,
      "byteOffset": 3828448,
      "byteLength": 13636,
      "byteStride": 28,
      "target": 34962
    },
    {
      "buffer": 0,
      "byteOffset": 3842084,
      "byteLength": 13972,
      "byteStride": 28,
      "target": 34962
    },
    {
      "buffer": 0,
      "byteOffset": 3856056,
      "byteLength": 336,
      "byteStride": 28,
      "target": 34962
    },
    {
      "buffer": 0,
      "byteOffset": 3856392,
      "byteLength": 2772,
      "byteStride": 28,
      "target": 34962
    },
    {
      "buffer": 0,
      "byteOffset": 3859164,
      "byteLength": 384,
      "byteStride": 24,
      "target": 34962
    },
    {
      "buffer": 0,
      "byteOffset": 3859548,
      "byteLength": 16408,
      "byteStride": 28,
      "target": 34962
    },
    {
      "buffer": 0,
      "byteOffset": 3875956,
      "byteLength": 2760,
      "byteStride": 24,
      "target": 34962
    },
    {
      "buffer": 0,
      "byteOffset": 3878716,
      "byteLength": 2744,
      "byteStride": 28,
      "target": 34962
    },
    {
      "buffer": 0,
      "byteOffset": 3881460,
      "byteLength": 111552,
      "byteStride": 28,
      "target": 34962
    },
    {
      "buffer": 0,
      "byteOffset": 3993012,
      "byteLength": 3922488,
      "byteStride": 24,
      "target": 34962
    },
    {
      "buffer": 0,
      "byteOffset": 7915500,
      "byteLength": 7008,
      "byteStride": 24,
      "target": 34962
    },
    {
      "buffer": 0,
      "byteOffset": 7922508,
      "byteLength": 96984,
      "byteStride": 24,
      "target": 34962
    },
    {
      "buffer": 0,
      "byteOffset": 8019492,
      "byteLength": 11700,
      "byteStride": 20,
      "target": 34962
    },
    {
      "buffer": 0,
      "byteOffset": 8031192,
      "byteLength": 83460,
      "byteStride": 20,
      "target": 34962
    }
  ],
  "samplers": [
    {
      "magFilter": 9729,
      "minFilter": 9987,
      "wrapS": 10497,
      "wrapT": 10497
    },
    {
      "magFilter": 9728,
      "minFilter": 9728,
      "wrapS": 10497,
      "wrapT": 10497
    }
  ],
  "textures": [
    {
      "sampler": 0,
      "extensions": {
        "EXT_texture_webp": {
          "source": 0
        }
      }
    },
    {
      "sampler": 0,
      "extensions": {
        "EXT_texture_webp": {
          "source": 2
        }
      }
    },
    {
      "sampler": 0,
      "extensions": {
        "EXT_texture_webp": {
          "source": 1
        }
      }
    },
    {
      "sampler": 0,
      "extensions": {
        "EXT_texture_webp": {
          "source": 3
        }
      }
    },
    {
      "sampler": 0,
      "extensions": {
        "EXT_texture_webp": {
          "source": 4
        }
      }
    },
    {
      "sampler": 0,
      "extensions": {
        "EXT_texture_webp": {
          "source": 5
        }
      }
    },
    {
      "sampler": 0,
      "extensions": {
        "EXT_texture_webp": {
          "source": 6
        }
      }
    },
    {
      "sampler": 0,
      "extensions": {
        "EXT_texture_webp": {
          "source": 7
        }
      }
    },
    {
      "sampler": 0,
      "extensions": {
        "EXT_texture_webp": {
          "source": 8
        }
      }
    },
    {
      "sampler": 0,
      "extensions": {
        "EXT_texture_webp": {
          "source": 9
        }
      }
    },
    {
      "sampler": 0,
      "extensions": {
        "EXT_texture_webp": {
          "source": 10
        }
      }
    },
    {
      "sampler": 0,
      "extensions": {
        "EXT_texture_webp": {
          "source": 11
        }
      }
    },
    {
      "sampler": 0,
      "extensions": {
        "EXT_texture_webp": {
          "source": 12
        }
      }
    },
    {
      "sampler": 0,
      "extensions": {
        "EXT_texture_webp": {
          "source": 13
        }
      }
    },
    {
      "sampler": 0,
      "extensions": {
        "EXT_texture_webp": {
          "source": 14
        }
      }
    },
    {
      "sampler": 0,
      "extensions": {
        "EXT_texture_webp": {
          "source": 15
        }
      }
    },
    {
      "sampler": 0,
      "extensions": {
        "EXT_texture_webp": {
          "source": 16
        }
      }
    },
    {
      "sampler": 0,
      "extensions": {
        "EXT_texture_webp": {
          "source": 17
        }
      }
    },
    {
      "sampler": 0,
      "extensions": {
        "EXT_texture_webp": {
          "source": 18
        }
      }
    },
    {
      "sampler": 0,
      "extensions": {
        "EXT_texture_webp": {
          "source": 19
        }
      }
    },
    {
      "sampler": 0,
      "extensions": {
        "EXT_texture_webp": {
          "source": 20
        }
      }
    },
    {
      "sampler": 0,
      "extensions": {
        "EXT_texture_webp": {
          "source": 21
        }
      }
    },
    {
      "sampler": 1,
      "extensions": {
        "EXT_texture_webp": {
          "source": 22
        }
      }
    },
    {
      "sampler": 1,
      "extensions": {
        "EXT_texture_webp": {
          "source": 23
        }
      }
    }
  ],
  "images": [
    {
      "name": "kia_logo_MY22_colour",
      "mimeType": "image/webp",
      "uri": "baseColor_1.webp"
    },
    {
      "name": "gforces_ATG_tyre_normal",
      "mimeType": "image/webp",
      "uri": "normal_1.webp"
    },
    {
      "name": "gforces_ATG_tyre_colour",
      "mimeType": "image/webp",
      "uri": "baseColor_2.webp"
    },
    {
      "name": "square_pattern_normal",
      "mimeType": "image/webp",
      "uri": "normal_2.webp"
    },
    {
      "name": "ext_discbrake_colour",
      "mimeType": "image/webp",
      "uri": "baseColor_3.webp"
    },
    {
      "name": "sensor_cap_normal",
      "mimeType": "image/webp",
      "uri": "normal_3.webp"
    },
    {
      "name": "pedals_alum_normal",
      "mimeType": "image/webp",
      "uri": "normal_4.webp"
    },
    {
      "name": "seat_gtl_uk_normal",
      "mimeType": "image/webp",
      "uri": "normal_5.webp"
    },
    {
      "name": "kia_sportage_steeringwheel_normal",
      "mimeType": "image/webp",
      "uri": "normal_6.webp"
    },
    {
      "name": "interior_fabric_normal",
      "mimeType": "image/webp",
      "uri": "normal_7.webp"
    },
    {
      "name": "carpet_colour",
      "mimeType": "image/webp",
      "uri": "baseColor_4.webp"
    },
    {
      "name": "seat_belt_colour",
      "mimeType": "image/webp",
      "uri": "baseColor_5.webp"
    },
    {
      "name": "kia_stitches_black_colour",
      "mimeType": "image/webp",
      "uri": "baseColor_6.webp"
    },
    {
      "name": "kia_steeringwheelstitches_black",
      "mimeType": "image/webp",
      "uri": "baseColor_7.webp"
    },
    {
      "name": "MY22_kia_interior_icons_colour",
      "mimeType": "image/webp",
      "uri": "baseColor_8.webp"
    },
    {
      "name": "kia_gtline_colour",
      "mimeType": "image/webp",
      "uri": "baseColor_9.webp"
    },
    {
      "name": "MY22_sportage_PHEV_cluster_colour",
      "mimeType": "image/webp",
      "uri": "baseColor_10.webp"
    },
    {
      "name": "paddles_normal",
      "mimeType": "image/webp",
      "uri": "normal_8.webp"
    },
    {
      "name": "speakerpattern_normal",
      "mimeType": "image/webp",
      "uri": "normal_9.webp"
    },
    {
      "name": "airbag_normal",
      "mimeType": "image/webp",
      "uri": "normal_10.webp"
    },
    {
      "name": "kia_dots_normal",
      "mimeType": "image/webp",
      "uri": "normal_11.webp"
    },
    {
      "name": "kia_stitches_gt_grey_colour",
      "mimeType": "image/webp",
      "uri": "baseColor_11.webp"
    },
    {
      "name": "PaletteBaseColor",
      "mimeType": "image/webp",
      "uri": "PaletteBaseColor.webp"
    },
    {
      "name": "PaletteMetallicRoughness",
      "mimeType": "image/webp",
      "uri": "PaletteMetallicRoughness.webp"
    }
  ],
  "buffers": [
    {
      "uri": "car.bin",
      "byteLength": 8114652
    }
  ],
  "materials": [
    {
      "name": "wheel_lgo",
      "doubleSided": true,
      "pbrMetallicRoughness": {
        "roughnessFactor": 0.5527864098548889,
        "metallicFactor": 0.5,
        "baseColorTexture": {
          "index": 0,
          "extensions": {
            "KHR_texture_transform": {
              "offset": [
                0,
                2
              ],
              "scale": [
                1,
                -1
              ]
            }
          }
        }
      },
      "extensions": {
        "KHR_materials_specular": {
          "specularColorFactor": [
            2,
            2,
            2
          ]
        }
      }
    },
    {
      "name": "tire",
      "doubleSided": true,
      "pbrMetallicRoughness": {
        "roughnessFactor": 0.5527864098548889,
        "metallicFactor": 0.5,
        "baseColorTexture": {
          "index": 1
        }
      },
      "normalTexture": {
        "index": 2
      },
      "extensions": {
        "KHR_materials_specular": {
          "specularColorFactor": [
            2,
            2,
            2
          ]
        }
      }
    },
    {
      "name": "squ_pat",
      "doubleSided": true,
      "pbrMetallicRoughness": {
        "baseColorFactor": [
          0.6153846383094788,
          0.6153846383094788,
          0.6153846383094788,
          1
        ],
        "roughnessFactor": 0.5527864098548889,
        "metallicFactor": 0.5
      },
      "normalTexture": {
        "index": 3
      },
      "extensions": {
        "KHR_materials_specular": {
          "specularColorFactor": [
            2,
            2,
            2
          ]
        }
      }
    },
    {
      "name": "breaks",
      "doubleSided": true,
      "pbrMetallicRoughness": {
        "roughnessFactor": 0.5527864098548889,
        "metallicFactor": 0.5,
        "baseColorTexture": {
          "index": 4
        }
      },
      "extensions": {
        "KHR_materials_specular": {
          "specularColorFactor": [
            2,
            2,
            2
          ]
        }
      }
    },
    {
      "name": "carPaint_Sensor",
      "doubleSided": true,
      "pbrMetallicRoughness": {
        "baseColorFactor": [
          0.011412560008466244,
          0.14209763705730438,
          0.2237762212753296,
          1
        ],
        "roughnessFactor": 0.5527864098548889,
        "metallicFactor": 0.5
      },
      "normalTexture": {
        "index": 5,
        "extensions": {
          "KHR_texture_transform": {
            "offset": [
              0,
              2
            ],
            "scale": [
              1,
              -1
            ]
          }
        }
      },
      "extensions": {
        "KHR_materials_specular": {
          "specularColorFactor": [
            2,
            2,
            2
          ]
        }
      }
    },
    {
      "name": "pedals_Alum",
      "doubleSided": true,
      "pbrMetallicRoughness": {
        "baseColorFactor": [
          0.3916083872318268,
          0.3916083872318268,
          0.3916083872318268,
          1
        ],
        "roughnessFactor": 0.5527864098548889,
        "metallicFactor": 0.5
      },
      "normalTexture": {
        "index": 6,
        "extensions": {
          "KHR_texture_transform": {
            "offset": [
              0,
              2
            ],
            "scale": [
              1,
              -1
            ]
          }
        }
      },
      "extensions": {
        "KHR_materials_specular": {
          "specularColorFactor": [
            2,
            2,
            2
          ]
        }
      }
    },
    {
      "name": "seats_map",
      "doubleSided": true,
      "pbrMetallicRoughness": {
        "baseColorFactor": [
          0.0699300691485405,
          0.0699300691485405,
          0.0699300691485405,
          1
        ],
        "roughnessFactor": 0.5527864098548889,
        "metallicFactor": 0.5
      },
      "normalTexture": {
        "index": 7,
        "extensions": {
          "KHR_texture_transform": {
            "offset": [
              0,
              2
            ],
            "scale": [
              1,
              -1
            ]
          }
        }
      },
      "extensions": {
        "KHR_materials_specular": {
          "specularColorFactor": [
            2,
            2,
            2
          ]
        }
      }
    },
    {
      "name": "sw_normal",
      "doubleSided": true,
      "pbrMetallicRoughness": {
        "baseColorFactor": [
          0.06293706595897675,
          0.06293706595897675,
          0.06293706595897675,
          1
        ],
        "roughnessFactor": 0.5527864098548889,
        "metallicFactor": 0.5
      },
      "normalTexture": {
        "index": 8,
        "extensions": {
          "KHR_texture_transform": {
            "offset": [
              0,
              2
            ],
            "scale": [
              1,
              -1
            ]
          }
        }
      },
      "extensions": {
        "KHR_materials_specular": {
          "specularColorFactor": [
            2,
            2,
            2
          ]
        }
      }
    },
    {
      "name": "fabrics",
      "doubleSided": true,
      "pbrMetallicRoughness": {
        "baseColorFactor": [
          0.05128205195069313,
          0.05128205195069313,
          0.05128205195069313,
          1
        ],
        "roughnessFactor": 0.5527864098548889,
        "metallicFactor": 0.5
      },
      "normalTexture": {
        "index": 9,
        "extensions": {
          "KHR_texture_transform": {
            "offset": [
              0,
              2
            ],
            "scale": [
              1,
              -1
            ]
          }
        }
      },
      "extensions": {
        "KHR_materials_specular": {
          "specularColorFactor": [
            2,
            2,
            2
          ]
        }
      }
    },
    {
      "name": "csrpet",
      "doubleSided": true,
      "pbrMetallicRoughness": {
        "roughnessFactor": 0.5527864098548889,
        "metallicFactor": 0.5,
        "baseColorTexture": {
          "index": 10,
          "extensions": {
            "KHR_texture_transform": {
              "offset": [
                0,
                2
              ],
              "scale": [
                1,
                -1
              ]
            }
          }
        }
      },
      "extensions": {
        "KHR_materials_specular": {
          "specularColorFactor": [
            2,
            2,
            2
          ]
        }
      }
    },
    {
      "name": "seatb",
      "doubleSided": true,
      "pbrMetallicRoughness": {
        "roughnessFactor": 0.5527864098548889,
        "metallicFactor": 0.5,
        "baseColorTexture": {
          "index": 11,
          "extensions": {
            "KHR_texture_transform": {
              "offset": [
                0,
                2
              ],
              "scale": [
                1,
                -1
              ]
            }
          }
        }
      },
      "extensions": {
        "KHR_materials_specular": {
          "specularColorFactor": [
            2,
            2,
            2
          ]
        }
      }
    },
    {
      "name": "st_black",
      "alphaMode": "BLEND",
      "doubleSided": true,
      "pbrMetallicRoughness": {
        "roughnessFactor": 0.5527864098548889,
        "metallicFactor": 0.5,
        "baseColorTexture": {
          "index": 12,
          "extensions": {
            "KHR_texture_transform": {
              "offset": [
                0,
                2
              ],
              "scale": [
                1,
                -1
              ]
            }
          }
        }
      },
      "extensions": {
        "KHR_materials_specular": {
          "specularColorFactor": [
            2,
            2,
            2
          ]
        }
      }
    },
    {
      "name": "sw_wtitch",
      "alphaMode": "BLEND",
      "doubleSided": true,
      "pbrMetallicRoughness": {
        "roughnessFactor": 0.5527864098548889,
        "metallicFactor": 0.5,
        "baseColorTexture": {
          "index": 13,
          "extensions": {
            "KHR_texture_transform": {
              "offset": [
                0,
                2
              ],
              "scale": [
                1,
                -1
              ]
            }
          }
        }
      },
      "extensions": {
        "KHR_materials_specular": {
          "specularColorFactor": [
            2,
            2,
            2
          ]
        }
      }
    },
    {
      "name": "ICON1",
      "alphaMode": "BLEND",
      "doubleSided": true,
      "pbrMetallicRoughness": {
        "roughnessFactor": 0.5527864098548889,
        "metallicFactor": 0.5,
        "baseColorTexture": {
          "index": 14,
          "extensions": {
            "KHR_texture_transform": {
              "offset": [
                0,
                2
              ],
              "scale": [
                1,
                -1
              ]
            }
          }
        }
      },
      "extensions": {
        "KHR_materials_specular": {
          "specularColorFactor": [
            2,
            2,
            2
          ]
        }
      }
    },
    {
      "name": "gtline_seats",
      "alphaMode": "BLEND",
      "doubleSided": true,
      "pbrMetallicRoughness": {
        "roughnessFactor": 0.5527864098548889,
        "metallicFactor": 0.5,
        "baseColorTexture": {
          "index": 15,
          "extensions": {
            "KHR_texture_transform": {
              "offset": [
                0,
                2
              ],
              "scale": [
                1,
                -1
              ]
            }
          }
        }
      },
      "extensions": {
        "KHR_materials_specular": {
          "specularColorFactor": [
            2,
            2,
            2
          ]
        }
      }
    },
    {
      "name": "display",
      "doubleSided": true,
      "pbrMetallicRoughness": {
        "roughnessFactor": 0,
        "metallicFactor": 0.5,
        "baseColorTexture": {
          "index": 16,
          "extensions": {
            "KHR_texture_transform": {
              "offset": [
                0,
                2
              ],
              "scale": [
                1,
                -1
              ]
            }
          }
        }
      },
      "extensions": {
        "KHR_materials_specular": {
          "specularColorFactor": [
            2,
            2,
            2
          ]
        }
      }
    },
    {
      "name": "paddles",
      "doubleSided": true,
      "pbrMetallicRoughness": {
        "baseColorFactor": [
          0.5,
          0.5,
          0.5,
          1
        ],
        "roughnessFactor": 0.5527864098548889,
        "metallicFactor": 0.5
      },
      "normalTexture": {
        "index": 17,
        "extensions": {
          "KHR_texture_transform": {
            "offset": [
              0,
              2
            ],
            "scale": [
              1,
              -1
            ]
          }
        }
      },
      "extensions": {
        "KHR_materials_specular": {
          "specularColorFactor": [
            2,
            2,
            2
          ]
        }
      }
    },
    {
      "name": "speaker_pat",
      "doubleSided": true,
      "pbrMetallicRoughness": {
        "baseColorFactor": [
          0.06293706595897675,
          0.06293706595897675,
          0.06293706595897675,
          1
        ],
        "roughnessFactor": 0.5527864098548889,
        "metallicFactor": 0.5
      },
      "normalTexture": {
        "index": 18,
        "extensions": {
          "KHR_texture_transform": {
            "offset": [
              0,
              2
            ],
            "scale": [
              1,
              -1
            ]
          }
        }
      },
      "extensions": {
        "KHR_materials_specular": {
          "specularColorFactor": [
            2,
            2,
            2
          ]
        }
      }
    },
    {
      "name": "plas_D_airba",
      "doubleSided": true,
      "pbrMetallicRoughness": {
        "baseColorFactor": [
          0.0279720276594162,
          0.0279720276594162,
          0.0279720276594162,
          1
        ],
        "roughnessFactor": 0.5527864098548889,
        "metallicFactor": 0.5
      },
      "normalTexture": {
        "index": 19,
        "extensions": {
          "KHR_texture_transform": {
            "offset": [
              0,
              2
            ],
            "scale": [
              1,
              -1
            ]
          }
        }
      },
      "extensions": {
        "KHR_materials_specular": {
          "specularColorFactor": [
            2,
            2,
            2
          ]
        }
      }
    },
    {
      "name": "plastic_D_Dots",
      "doubleSided": true,
      "pbrMetallicRoughness": {
        "baseColorFactor": [
          0.09090909361839294,
          0.09090909361839294,
          0.09090909361839294,
          1
        ],
        "roughnessFactor": 0.5527864098548889,
        "metallicFactor": 0.5
      },
      "normalTexture": {
        "index": 20,
        "extensions": {
          "KHR_texture_transform": {
            "offset": [
              0,
              2
            ],
            "scale": [
              1,
              -1
            ]
          }
        }
      },
      "extensions": {
        "KHR_materials_specular": {
          "specularColorFactor": [
            2,
            2,
            2
          ]
        }
      }
    },
    {
      "name": "st_white",
      "alphaMode": "BLEND",
      "doubleSided": true,
      "pbrMetallicRoughness": {
        "roughnessFactor": 0.5527864098548889,
        "metallicFactor": 0.5,
        "baseColorTexture": {
          "index": 21,
          "extensions": {
            "KHR_texture_transform": {
              "offset": [
                0,
                2
              ],
              "scale": [
                1,
                -1
              ]
            }
          }
        }
      },
      "extensions": {
        "KHR_materials_specular": {
          "specularColorFactor": [
            2,
            2,
            2
          ]
        }
      }
    },
    {
      "name": "PaletteMaterial001",
      "doubleSided": true,
      "pbrMetallicRoughness": {
        "baseColorTexture": {
          "index": 22
        },
        "metallicRoughnessTexture": {
          "index": 23
        }
      },
      "extensions": {
        "KHR_materials_specular": {
          "specularColorFactor": [
            2,
            2,
            2
          ]
        }
      }
    },
    {
      "name": "PaletteMaterial002",
      "alphaMode": "BLEND",
      "doubleSided": true,
      "pbrMetallicRoughness": {
        "baseColorTexture": {
          "index": 22
        },
        "metallicRoughnessTexture": {
          "index": 23
        }
      },
      "extensions": {
        "KHR_materials_specular": {
          "specularColorFactor": [
            2,
            2,
            2
          ]
        }
      }
    }
  ],
  "meshes": [
    {
      "name": "Mesh.099",
      "primitives": [
        {
          "attributes": {
            "TEXCOORD_0": 24,
            "COLOR_0": 25,
            "POSITION": 26,
            "NORMAL": 27
          },
          "mode": 4,
          "material": 2,
          "indices": 0
        }
      ]
    },
    {
      "name": "Mesh.118",
      "primitives": [
        {
          "attributes": {
            "TEXCOORD_0": 28,
            "COLOR_0": 29,
            "POSITION": 30,
            "NORMAL": 31
          },
          "mode": 4,
          "material": 3,
          "indices": 1
        }
      ]
    },
    {
      "name": "Mesh.050",
      "primitives": [
        {
          "attributes": {
            "TEXCOORD_0": 32,
            "COLOR_0": 33,
            "POSITION": 34,
            "NORMAL": 35
          },
          "mode": 4,
          "material": 4,
          "indices": 2
        }
      ]
    },
    {
      "name": "Mesh.019",
      "primitives": [
        {
          "attributes": {
            "POSITION": 112,
            "NORMAL": 113,
            "TEXCOORD_0": 114
          },
          "mode": 4,
          "material": 21,
          "indices": 3
        }
      ]
    },
    {
      "name": "Mesh.070",
      "primitives": [
        {
          "attributes": {
            "POSITION": 115,
            "NORMAL": 116,
            "TEXCOORD_0": 117
          },
          "mode": 4,
          "material": 22,
          "indices": 4
        }
      ]
    },
    {
      "name": "Mesh.331",
      "primitives": [
        {
          "attributes": {
            "COLOR_0": 36,
            "POSITION": 37,
            "NORMAL": 38,
            "TEXCOORD_0": 39
          },
          "mode": 4,
          "material": 5,
          "indices": 5
        }
      ]
    },
    {
      "name": "Mesh.371",
      "primitives": [
        {
          "attributes": {
            "COLOR_0": 40,
            "POSITION": 41,
            "NORMAL": 42,
            "TEXCOORD_0": 43
          },
          "mode": 4,
          "material": 6,
          "indices": 6
        }
      ]
    },
    {
      "name": "Mesh.405",
      "primitives": [
        {
          "attributes": {
            "TEXCOORD_0": 44,
            "COLOR_0": 45,
            "POSITION": 46,
            "NORMAL": 47
          },
          "mode": 4,
          "material": 7,
          "indices": 7
        }
      ]
    },
    {
      "name": "Mesh.375",
      "primitives": [
        {
          "attributes": {
            "TEXCOORD_0": 48,
            "COLOR_0": 49,
            "POSITION": 50,
            "NORMAL": 51
          },
          "mode": 4,
          "material": 8,
          "indices": 8
        }
      ]
    },
    {
      "name": "Mesh.384",
      "primitives": [
        {
          "attributes": {
            "TEXCOORD_0": 52,
            "COLOR_0": 53,
            "POSITION": 54,
            "NORMAL": 55
          },
          "mode": 4,
          "material": 9,
          "indices": 9
        }
      ]
    },
    {
      "name": "Mesh.381",
      "primitives": [
        {
          "attributes": {
            "TEXCOORD_0": 56,
            "COLOR_0": 57,
            "POSITION": 58,
            "NORMAL": 59
          },
          "mode": 4,
          "material": 10,
          "indices": 10
        }
      ]
    },
    {
      "name": "Mesh.407",
      "primitives": [
        {
          "attributes": {
            "TEXCOORD_0": 60,
            "COLOR_0": 61,
            "POSITION": 62,
            "NORMAL": 63
          },
          "mode": 4,
          "material": 11,
          "indices": 11
        }
      ]
    },
    {
      "name": "Mesh.406",
      "primitives": [
        {
          "attributes": {
            "TEXCOORD_0": 64,
            "COLOR_0": 65,
            "POSITION": 66,
            "NORMAL": 67
          },
          "mode": 4,
          "material": 12,
          "indices": 12
        }
      ]
    },
    {
      "name": "Mesh.444",
      "primitives": [
        {
          "attributes": {
            "TEXCOORD_0": 68,
            "COLOR_0": 69,
            "POSITION": 70,
            "NORMAL": 71
          },
          "mode": 4,
          "material": 13,
          "indices": 13
        }
      ]
    },
    {
      "name": "Mesh.438",
      "primitives": [
        {
          "attributes": {
            "TEXCOORD_0": 72,
            "COLOR_0": 73,
            "POSITION": 74,
            "NORMAL": 75
          },
          "mode": 4,
          "material": 14,
          "indices": 14
        }
      ]
    },
    {
      "name": "Mesh.433",
      "primitives": [
        {
          "attributes": {
            "TEXCOORD_0": 76,
            "COLOR_0": 77,
            "POSITION": 78,
            "NORMAL": 79
          },
          "mode": 4,
          "material": 15,
          "indices": 15
        }
      ]
    },
    {
      "name": "Mesh.437",
      "primitives": [
        {
          "attributes": {
            "COLOR_0": 80,
            "POSITION": 81,
            "NORMAL": 82,
            "TEXCOORD_0": 83
          },
          "mode": 4,
          "material": 16,
          "indices": 16
        }
      ]
    },
    {
      "name": "Mesh.236",
      "primitives": [
        {
          "attributes": {
            "TEXCOORD_0": 84,
            "COLOR_0": 85,
            "POSITION": 86,
            "NORMAL": 87
          },
          "mode": 4,
          "material": 17,
          "indices": 17
        }
      ]
    },
    {
      "name": "Mesh.261",
      "primitives": [
        {
          "attributes": {
            "COLOR_0": 88,
            "POSITION": 89,
            "NORMAL": 90,
            "TEXCOORD_0": 91
          },
          "mode": 4,
          "material": 18,
          "indices": 18
        }
      ]
    },
    {
      "name": "Mesh.243",
      "primitives": [
        {
          "attributes": {
            "TEXCOORD_0": 92,
            "COLOR_0": 93,
            "POSITION": 94,
            "NORMAL": 95
          },
          "mode": 4,
          "material": 19,
          "indices": 19
        }
      ]
    },
    {
      "name": "Mesh.418",
      "primitives": [
        {
          "attributes": {
            "TEXCOORD_0": 96,
            "COLOR_0": 97,
            "POSITION": 98,
            "NORMAL": 99
          },
          "mode": 4,
          "material": 20,
          "indices": 20
        }
      ]
    },
    {
      "name": "Mesh.449",
      "primitives": [
        {
          "attributes": {
            "COLOR_0": 100,
            "POSITION": 101,
            "NORMAL": 102,
            "TEXCOORD_0": 103
          },
          "mode": 4,
          "material": 21,
          "indices": 21
        }
      ]
    },
    {
      "name": "Mesh.450",
      "primitives": [
        {
          "attributes": {
            "COLOR_0": 104,
            "POSITION": 105,
            "NORMAL": 106,
            "TEXCOORD_0": 107
          },
          "mode": 4,
          "material": 0,
          "indices": 22
        }
      ]
    },
    {
      "name": "Mesh.451",
      "primitives": [
        {
          "attributes": {
            "COLOR_0": 108,
            "POSITION": 109,
            "NORMAL": 110,
            "TEXCOORD_0": 111
          },
          "mode": 4,
          "material": 1,
          "indices": 23
        }
      ]
    }
  ],
  "nodes": [
    {
      "name": "Ext_19inch_Type_A_aluminiumbrushed.001",
      "translation": [
        -1.5379880480281827e-8,
        0.8605161722805813,
        0.005530082287385829
      ],
      "rotation": [
        0.9999999999999761,
        0,
        0,
        -2.1865255888090667e-7
      ],
      "scale": [
        2.2579395170970358,
        2.257939743185281,
        2.257939743185281
      ],
      "mesh": 21
    },
    {
      "name": "Ext_19inch_Type_A_plasticshiny__wheellogo.001",
      "translation": [
        9.429266345506448e-8,
        0.3391550059690581,
        -0.007978455883079327
      ],
      "rotation": [
        0.9999999999999761,
        0,
        0,
        -2.1865255888090665e-7
      ],
      "scale": [
        1.3707584539631348,
        1.370758591217641,
        1.370758591217641
      ],
      "mesh": 22
    },
    {
      "name": "Ext_19inch_Type_A_wheel_tyres.001",
      "translation": [
        8.952429197961465e-8,
        0.33930104212910145,
        -0.007979858912664284
      ],
      "rotation": [
        0.9999999999999761,
        0,
        0,
        -2.1865255888090667e-7
      ],
      "scale": [
        1.6869109730367882,
        1.6869111419477527,
        1.6869111419477527
      ],
      "mesh": 23
    },
    {
      "name": "Ext_Sportage_2022_frontlight_aluminiumbrushed__squarepatter",
      "translation": [
        0,
        0.7985318460136194,
        0.05326653777612466
      ],
      "rotation": [
        0.7071068882942237,
        0,
        0,
        0.7071066740788552
      ],
      "scale": [
        2.151511487554501,
        2.1515114139114373,
        2.1515114139114373
      ],
      "mesh": 0
    },
    {
      "name": "polySurface2",
      "translation": [
        -0.0013034438795571646,
        0.3365059341821094,
        -0.009894838243252954
      ],
      "rotation": [
        0.7071068882942236,
        0,
        0,
        0.7071066740788552
      ],
      "scale": [
        1.4923547792653409,
        1.4923547281842389,
        1.4923547281842389
      ],
      "mesh": 1
    },
    {
      "name": "Ext_Sportage_2022_base_petrolcap_carpaint__sensor.001",
      "translation": [
        -0.12960044571160267,
        0.8046050761058184,
        -0.27310993727888727
      ],
      "rotation": [
        0.7071068882942236,
        0,
        0,
        0.7071066740788552
      ],
      "scale": [
        1.957252000929742,
        1.9572519339358945,
        1.9572519339358945
      ],
      "mesh": 2
    },
    {
      "name": "Int_Sportage_2022_GLS_boot_panel_carpaint.001",
      "translation": [
        0,
        1.062216746056204,
        0.8925507231562216
      ],
      "rotation": [
        0.7071068882942237,
        0,
        0,
        0.7071066740788552
      ],
      "scale": [
        1.124641908303456,
        1.124641869808623,
        1.124641869808623
      ],
      "mesh": 3
    },
    {
      "name": "Ext_Sportage_2022_base_Door_FL_glassclear.002",
      "translation": [
        5.126053181925272e-8,
        0.9961619044170793,
        0.04745786998207435
      ],
      "rotation": [
        0.7071068882942235,
        0,
        0,
        0.7071066740788552
      ],
      "scale": [
        2.1613580602103895,
        2.1613579862302927,
        2.1613579862302927
      ],
      "mesh": 4
    },
    {
      "name": "Int_Sportage_2022_pedals_GTL_chrome__pedals.001",
      "translation": [
        -0.28674416854804363,
        0.4787791676662048,
        -0.8803625422165309
      ],
      "rotation": [
        0.7071068882942236,
        0,
        0,
        0.7071066740788552
      ],
      "scale": [
        0.11515313844785524,
        0.11515313450633324,
        0.11515313450633324
      ],
      "mesh": 5
    },
    {
      "name": "Int_Sportage_2022_seats_GTL_leather__seat_gtl3.001",
      "translation": [
        0,
        0.7982380073208143,
        0.5324503131794579
      ],
      "rotation": [
        0.7071068882942236,
        0,
        0,
        0.7071066740788552
      ],
      "scale": [
        0.6433213710042525,
        0.6433213489843113,
        0.6433213489843113
      ],
      "mesh": 6
    },
    {
      "name": "Int_Sportage_2022_steeringwheel_leather__steeringwheel.002",
      "translation": [
        -0.3758986770533319,
        1.0292751988933375,
        -0.3738503534757072
      ],
      "rotation": [
        0.7071068882942236,
        0,
        0,
        0.7071066740788552
      ],
      "scale": [
        0.054589709015420596,
        0.054589707146895414,
        0.054589707146895414
      ],
      "mesh": 7
    },
    {
      "name": "Ext_Sportage_2022_GLS_roof_fabrics__roof.001",
      "translation": [
        -0.0007151794273738687,
        0.958600861629243,
        0.28113484424962404
      ],
      "rotation": [
        0.7071068882942236,
        0,
        0,
        0.7071066740788552
      ],
      "scale": [
        1.3526790316549153,
        1.352678985354708,
        1.352678985354708
      ],
      "mesh": 8
    },
    {
      "name": "Int_Sportage_2022_base_Door_FL_fabrics__carpet.001",
      "translation": [
        0.00011795401363379199,
        0.7812478678465425,
        0.4993891533773087
      ],
      "rotation": [
        0.7071068882942237,
        0,
        0,
        0.7071066740788552
      ],
      "scale": [
        1.5204018634467893,
        1.520401811405677,
        1.520401811405677
      ],
      "mesh": 9
    },
    {
      "name": "Int_Sportage_2022_seatbelts_fabrics__seatbelts.001",
      "translation": [
        0,
        0.9373068274676528,
        0.861714972719708
      ],
      "rotation": [
        0.7071068882942236,
        0,
        0,
        0.7071066740788552
      ],
      "scale": [
        0.6645633548968277,
        0.6645633321498048,
        0.6645633321498048
      ],
      "mesh": 10
    },
    {
      "name": "Int_Sportage_2022_dash_stitchesalphacutoff__black.001",
      "translation": [
        0.0006450271462270507,
        0.9955589383970069,
        0.3299366562735863
      ],
      "rotation": [
        0.7071068882942236,
        0,
        0,
        0.7071066740788552
      ],
      "scale": [
        1.3187362376137912,
        1.3187361924753958,
        1.3187361924753958
      ],
      "mesh": 11
    },
    {
      "name": "Int_Sportage_2022_GLS_steeringwheel_stitches__black1.001",
      "translation": [
        -0.37590781325307887,
        1.0436604295207965,
        -0.4004316540712985
      ],
      "rotation": [
        0.7071068882942236,
        0,
        0,
        0.7071066740788552
      ],
      "scale": [
        0.15207572597095975,
        0.15207572076563208,
        0.15207572076563208
      ],
      "mesh": 12
    },
    {
      "name": "Int_Sportage_2022_base_Door_Trunk_icon.001",
      "translation": [
        -0.006873702849290453,
        1.0837880311637205,
        0.6994214253385983
      ],
      "rotation": [
        0.7071068882942236,
        0,
        0,
        0.7071066740788552
      ],
      "scale": [
        1.4030659171253603,
        1.4030658691004845,
        1.4030658691004845
      ],
      "mesh": 13
    },
    {
      "name": "Int_seats_GTL_front_selfillumroughalpha__gtlinelogo.001",
      "translation": [
        0.0006006240710476618,
        1.0838422482400778,
        0.31375676945966235
      ],
      "rotation": [
        0.7071068882942236,
        0,
        0,
        0.7071066740788552
      ],
      "scale": [
        0.43055998793482786,
        0.43055997319739486,
        0.43055997319739486
      ],
      "mesh": 14
    },
    {
      "name": "Int_Sportage_2022_GLS_dash_naviscreen_cluster.001",
      "translation": [
        -0.19249293850750604,
        1.060516266887802,
        -0.6129938546504707
      ],
      "rotation": [
        0.7071068882942236,
        0,
        0,
        0.7071066740788552
      ],
      "scale": [
        0.38823966112197184,
        0.38823964783310116,
        0.38823964783310116
      ],
      "mesh": 15
    },
    {
      "name": "Int_Sportage_2022_GLS_steeringwheel_paddles.001",
      "translation": [
        -0.3763466941636793,
        1.050896963128051,
        -0.4504630821536969
      ],
      "rotation": [
        0.7071068882942236,
        0,
        0,
        0.7071066740788552
      ],
      "scale": [
        0.12570068078412078,
        0.12570067648157196,
        0.12570067648157196
      ],
      "mesh": 16
    },
    {
      "name": "Ext_Sportage_2022_GLS_pillarfront_plasticdiffuse__speaker.001",
      "translation": [
        0,
        0.8606108821599209,
        -0.17052214993249357
      ],
      "rotation": [
        0.7071068882942236,
        0,
        0,
        0.7071066740788552
      ],
      "scale": [
        0.7918445028697434,
        0.7918444757660745,
        0.7918444757660745
      ],
      "mesh": 17
    },
    {
      "name": "Int_Sportage_2022_airvent_plasticdiffuse__airbag.001",
      "translation": [
        0.6645997471079284,
        0.9563719280822386,
        -0.67473828654621
      ],
      "rotation": [
        0.7071068882942236,
        0,
        0,
        0.7071066740788552
      ],
      "scale": [
        0.11354606374622733,
        0.11354605985971312,
        0.11354605985971312
      ],
      "mesh": 18
    },
    {
      "name": "Int_Sportage_2022_ceilinglight_plasticdiffuse__dots.001",
      "translation": [
        0,
        1.4832191038270175,
        -0.0936521679583553
      ],
      "rotation": [
        0.7071068882942236,
        0,
        0,
        0.7071066740788552
      ],
      "scale": [
        0.05633051746344897,
        0.056330515535338486,
        0.056330515535338486
      ],
      "mesh": 19
    },
    {
      "name": "Int_Sportage_2022_base_Door_FL_stitchesalphacutoff__white.001",
      "translation": [
        -0.000003916024535755014,
        0.8812302234108642,
        0.13925826217506088
      ],
      "rotation": [
        0.7071068882942236,
        0,
        0,
        0.7071066740788552
      ],
      "scale": [
        1.1599259975569094,
        1.1599259578543542,
        1.1599259578543542
      ],
      "mesh": 20
    }
  ],
  "scenes": [
    {
      "name": "Scene",
      "nodes": [
        0,
        1,
        2,
        3,
        4,
        5,
        6,
        7,
        8,
        9,
        10,
        11,
        12,
        13,
        14,
        15,
        16,
        17,
        18,
        19,
        20,
        21,
        22,
        23
      ]
    }
  ],
  "scene": 0,
  "extensionsUsed": [
    "EXT_texture_webp",
    "KHR_materials_specular",
    "KHR_mesh_quantization",
    "KHR_texture_transform"
  ],
  "extensionsRequired": [
    "EXT_texture_webp",
    "KHR_mesh_quantization",
    "KHR_texture_transform"
  ]
}